# xmcd
#
# Track frame offsets: 
#        150
#        24650
#        45120
#        52870
#        65210
#        78735
#        88857
#        109257
#        130262
#        146502
#        161630
#        185190
#
# Disc length: 2667 seconds
#
# Revision: 9
# Processed by: cddbd v1.5.2PL0 Copyright (c) Steve Scherf et al.
# Submitted via: ExactAudioCopy v1.0b3
#
DISCID=a90a690c
DTITLE=シンフォニック・オーケストラ・ヤマト - 交響組曲 宇宙戦艦ヤマト Symphonic Suite Yamato
DYEAR=1977
DGENRE=Soundtrack
TTITLE0=序曲
TTITLE1=誕生
TTITLE2=サーシャ
TTITLE3=試練
TTITLE4=出発
TTITLE5=追憶
TTITLE6=真赤なスカーフ
TTITLE7=決戦~挑戦=出撃=勝利
TTITLE8=イスカンダル
TTITLE9=回想
TTITLE10=明日への希望~夢・ロマン・冒険心
TTITLE11=スターシャ
EXTD=YEAR: 1977
EXTT0=
EXTT1=
EXTT2=
EXTT3=
EXTT4=
EXTT5=
EXTT6=
EXTT7=
EXTT8=
EXTT9=
EXTT10=
EXTT11=
PLAYORDER=
